<svg width="880" height="520" viewBox="0 0 880 520" fill="none" xmlns="http://www.w3.org/2000/svg">
  <defs>
    <linearGradient id="metric" x1="0" y1="0" x2="1" y2="1">
      <stop offset="0%" stop-color="#F48020" />
      <stop offset="100%" stop-color="#FFB347" />
    </linearGradient>
  </defs>

  <rect width="880" height="520" rx="28" fill="#F8FAFF" />

  <rect x="80" y="80" width="300" height="160" rx="20" fill="#FFFFFF" stroke="#E2E8F0" />
  <rect x="110" y="110" width="140" height="16" rx="8" fill="#CBD5F5" />
  <rect x="110" y="140" width="90" height="10" rx="5" fill="#E2E8F0" />
  <rect x="110" y="170" width="220" height="12" rx="6" fill="#E2E8F0" />
  <rect x="110" y="195" width="180" height="12" rx="6" fill="#E2E8F0" />

  <rect x="500" y="80" width="300" height="160" rx="20" fill="#0037FF" />
  <rect x="530" y="110" width="140" height="16" rx="8" fill="#FFFFFF" opacity="0.7" />
  <rect x="530" y="140" width="90" height="10" rx="5" fill="#FFFFFF" opacity="0.4" />
  <rect x="530" y="175" width="220" height="14" rx="7" fill="url(#metric)" />
  <rect x="530" y="200" width="160" height="12" rx="6" fill="#FFFFFF" opacity="0.5" />

  <rect x="80" y="300" width="720" height="140" rx="22" fill="#FFFFFF" stroke="#E2E8F0" />
  <rect x="120" y="330" width="180" height="16" rx="8" fill="#CBD5F5" />
  <rect x="120" y="360" width="260" height="10" rx="5" fill="#E2E8F0" />
  <rect x="120" y="385" width="220" height="10" rx="5" fill="#E2E8F0" />
  <rect x="500" y="340" width="240" height="14" rx="7" fill="url(#metric)" />
  <rect x="500" y="370" width="200" height="10" rx="5" fill="#E2E8F0" />
</svg>
