<svg width="960" height="720" viewBox="0 0 960 720" fill="none" xmlns="http://www.w3.org/2000/svg">
  <defs>
    <linearGradient id="bg" x1="0" y1="0" x2="1" y2="1">
      <stop offset="0%" stop-color="#0037FF" />
      <stop offset="100%" stop-color="#2453FF" />
    </linearGradient>
    <linearGradient id="accent" x1="0" y1="0" x2="1" y2="0">
      <stop offset="0%" stop-color="#F48020" />
      <stop offset="100%" stop-color="#FFB347" />
    </linearGradient>
  </defs>

  <rect width="960" height="720" rx="28" fill="url(#bg)" />

  <circle cx="780" cy="160" r="140" fill="#1E4BFF" opacity="0.45" />
  <circle cx="160" cy="600" r="180" fill="#1E4BFF" opacity="0.35" />

  <rect x="120" y="120" width="480" height="320" rx="20" fill="#FFFFFF" opacity="0.95" />
  <rect x="150" y="150" width="260" height="18" rx="9" fill="#E2E8F0" />
  <rect x="150" y="185" width="200" height="12" rx="6" fill="#CBD5F5" />

  <rect x="150" y="230" width="380" height="160" rx="16" fill="#F8FAFF" stroke="#D6E1FF" />
  <polyline points="170,355 230,320 300,340 370,290 440,310 510,260" stroke="url(#accent)" stroke-width="6" fill="none" stroke-linecap="round" stroke-linejoin="round" />
  <circle cx="230" cy="320" r="6" fill="#F48020" />
  <circle cx="300" cy="340" r="6" fill="#F48020" />
  <circle cx="370" cy="290" r="6" fill="#F48020" />
  <circle cx="440" cy="310" r="6" fill="#F48020" />
  <circle cx="510" cy="260" r="6" fill="#F48020" />

  <rect x="640" y="300" width="200" height="260" rx="20" fill="#FFFFFF" opacity="0.95" />
  <rect x="662" y="325" width="156" height="16" rx="8" fill="#CBD5F5" />
  <rect x="662" y="355" width="110" height="10" rx="5" fill="#E2E8F0" />
  <rect x="662" y="390" width="156" height="10" rx="5" fill="#E2E8F0" />
  <rect x="662" y="420" width="130" height="10" rx="5" fill="#E2E8F0" />
  <rect x="662" y="470" width="156" height="42" rx="12" fill="url(#accent)" />

  <rect x="120" y="480" width="320" height="120" rx="18" fill="#FFFFFF" opacity="0.92" />
  <rect x="145" y="510" width="120" height="12" rx="6" fill="#CBD5F5" />
  <rect x="145" y="540" width="260" height="10" rx="5" fill="#E2E8F0" />
  <rect x="145" y="565" width="220" height="10" rx="5" fill="#E2E8F0" />
</svg>
